<mxfile host="Electron" modified="2024-03-23T18:45:39.293Z" agent="Mozilla/5.0 (X11; Linux x86_64) AppleWebKit/537.36 (KHTML, like Gecko) draw.io/23.1.5 Chrome/120.0.6099.109 Electron/28.1.0 Safari/537.36" etag="x7vQrM9e8WsBxBu_i9Kj" version="23.1.5" type="device">
  <diagram name="Page-1" id="bINPrWWKYaWzHOHRJIdD">
    <mxGraphModel dx="567" dy="366" grid="1" gridSize="10" guides="1" tooltips="1" connect="1" arrows="1" fold="1" page="1" pageScale="1" pageWidth="850" pageHeight="1100" math="0" shadow="0">
      <root>
        <mxCell id="0" />
        <mxCell id="1" parent="0" />
        <mxCell id="3ZL1Tjc2D25S1oqH2oYp-65" value="" style="rounded=0;whiteSpace=wrap;html=1;" parent="1" vertex="1">
          <mxGeometry x="170" y="75" width="520" height="420" as="geometry" />
        </mxCell>
        <mxCell id="3ZL1Tjc2D25S1oqH2oYp-3" value="" style="rounded=1;whiteSpace=wrap;html=1;" parent="1" vertex="1">
          <mxGeometry x="420" y="80" width="240" height="400" as="geometry" />
        </mxCell>
        <mxCell id="3ZL1Tjc2D25S1oqH2oYp-41" value="&lt;br&gt;1) Texto notificando as tarefas no dia que devem ser feitas e informando as que não foram realizadas.&lt;br&gt;&lt;br&gt;2) botão para fechar o modal&lt;br&gt;&lt;br&gt;&lt;br&gt;&lt;br&gt;&lt;br&gt;&lt;br&gt;&lt;br&gt;&lt;br&gt;&lt;br&gt;&lt;br&gt;&lt;div&gt;&lt;br&gt;&lt;/div&gt;" style="text;html=1;spacing=5;spacingTop=-20;whiteSpace=wrap;overflow=hidden;rounded=0;" parent="1" vertex="1">
          <mxGeometry x="430" y="105" width="220" height="375" as="geometry" />
        </mxCell>
        <mxCell id="d6iQdWB7Fnf-9KSlPEoD-1" value="Name text" style="text;html=1;align=center;verticalAlign=middle;whiteSpace=wrap;rounded=0;" vertex="1" parent="1">
          <mxGeometry x="180" y="109.4" width="110" height="30" as="geometry" />
        </mxCell>
        <mxCell id="d6iQdWB7Fnf-9KSlPEoD-3" value="" style="rounded=1;whiteSpace=wrap;html=1;" vertex="1" parent="1">
          <mxGeometry x="200" y="145" width="160" height="20" as="geometry" />
        </mxCell>
        <mxCell id="d6iQdWB7Fnf-9KSlPEoD-5" value="" style="html=1;verticalLabelPosition=bottom;align=center;labelBackgroundColor=#ffffff;verticalAlign=top;strokeWidth=2;strokeColor=#000000;shadow=0;dashed=0;shape=mxgraph.ios7.icons.looking_glass;" vertex="1" parent="1">
          <mxGeometry x="210" y="148.75" width="10" height="12.5" as="geometry" />
        </mxCell>
        <mxCell id="d6iQdWB7Fnf-9KSlPEoD-7" value="&lt;font color=&quot;#c2c2c2&quot;&gt;Search&lt;/font&gt;" style="text;html=1;align=center;verticalAlign=middle;whiteSpace=wrap;rounded=0;" vertex="1" parent="1">
          <mxGeometry x="220" y="139.4" width="60" height="30" as="geometry" />
        </mxCell>
        <mxCell id="d6iQdWB7Fnf-9KSlPEoD-8" value="" style="rounded=1;whiteSpace=wrap;html=1;fillColor=#f8cecc;strokeColor=#b85450;gradientColor=#ea6b66;" vertex="1" parent="1">
          <mxGeometry x="200" y="198" width="160" height="60" as="geometry" />
        </mxCell>
        <mxCell id="d6iQdWB7Fnf-9KSlPEoD-13" value="&lt;h1 style=&quot;line-height: 20%;&quot;&gt;&lt;span style=&quot;background-color: initial; font-weight: normal;&quot;&gt;&lt;font style=&quot;font-size: 7px;&quot;&gt;Lorem ipsum dolor sit amet, consectetur adipisicing elit, sed do eiusmod tempor incididunt ut labore et dolore magna aliqua.&lt;/font&gt;&lt;/span&gt;&lt;br&gt;&lt;/h1&gt;" style="text;html=1;spacing=5;spacingTop=-20;whiteSpace=wrap;overflow=hidden;rounded=0;" vertex="1" parent="1">
          <mxGeometry x="201" y="191.4" width="160" height="38.6" as="geometry" />
        </mxCell>
        <mxCell id="d6iQdWB7Fnf-9KSlPEoD-15" value="" style="html=1;verticalLabelPosition=bottom;align=center;labelBackgroundColor=#ffffff;verticalAlign=top;strokeWidth=2;strokeColor=#000000;shadow=0;dashed=0;shape=mxgraph.ios7.icons.add;" vertex="1" parent="1">
          <mxGeometry x="340" y="169.4" width="20" height="19" as="geometry" />
        </mxCell>
        <mxCell id="d6iQdWB7Fnf-9KSlPEoD-17" value="" style="html=1;verticalLabelPosition=bottom;align=center;labelBackgroundColor=#ffffff;verticalAlign=top;strokeWidth=2;strokeColor=#000000;shadow=0;dashed=0;shape=mxgraph.ios7.icons.preferences;pointerEvents=1" vertex="1" parent="1">
          <mxGeometry x="340" y="114.7" width="21" height="19.4" as="geometry" />
        </mxCell>
        <mxCell id="d6iQdWB7Fnf-9KSlPEoD-18" value="" style="html=1;verticalLabelPosition=bottom;align=center;labelBackgroundColor=#ffffff;verticalAlign=top;strokeWidth=2;strokeColor=#000000;shadow=0;dashed=0;shape=mxgraph.ios7.icons.bell;" vertex="1" parent="1">
          <mxGeometry x="310" y="114.7" width="20" height="20" as="geometry" />
        </mxCell>
        <mxCell id="d6iQdWB7Fnf-9KSlPEoD-19" value="&lt;font style=&quot;font-size: 7px;&quot;&gt;99/99/9999&lt;/font&gt;" style="text;html=1;align=center;verticalAlign=middle;whiteSpace=wrap;rounded=0;" vertex="1" parent="1">
          <mxGeometry x="210" y="244" width="35" height="10" as="geometry" />
        </mxCell>
        <mxCell id="d6iQdWB7Fnf-9KSlPEoD-20" value="" style="ellipse;whiteSpace=wrap;html=1;aspect=fixed;fillColor=#f0a30a;fontColor=#000000;strokeColor=#BD7000;" vertex="1" parent="1">
          <mxGeometry x="345" y="244" width="10" height="10" as="geometry" />
        </mxCell>
        <mxCell id="d6iQdWB7Fnf-9KSlPEoD-21" value="" style="ellipse;whiteSpace=wrap;html=1;aspect=fixed;fillColor=#d0cee2;strokeColor=#56517e;" vertex="1" parent="1">
          <mxGeometry x="330" y="244" width="10" height="10" as="geometry" />
        </mxCell>
        <mxCell id="d6iQdWB7Fnf-9KSlPEoD-22" value="" style="ellipse;whiteSpace=wrap;html=1;aspect=fixed;fillColor=#dae8fc;gradientColor=#7ea6e0;strokeColor=#6c8ebf;" vertex="1" parent="1">
          <mxGeometry x="315" y="244" width="10" height="10" as="geometry" />
        </mxCell>
        <mxCell id="d6iQdWB7Fnf-9KSlPEoD-24" value="" style="ellipse;whiteSpace=wrap;html=1;aspect=fixed;fillColor=#ffcd28;gradientColor=#ffa500;strokeColor=#d79b00;" vertex="1" parent="1">
          <mxGeometry x="300" y="244" width="10" height="10" as="geometry" />
        </mxCell>
        <mxCell id="d6iQdWB7Fnf-9KSlPEoD-25" value="" style="rounded=1;whiteSpace=wrap;html=1;fillColor=#eeeeee;strokeColor=#36393d;" vertex="1" parent="1">
          <mxGeometry x="200" y="265" width="160" height="60" as="geometry" />
        </mxCell>
        <mxCell id="d6iQdWB7Fnf-9KSlPEoD-26" value="&lt;h1 style=&quot;line-height: 20%;&quot;&gt;&lt;span style=&quot;background-color: initial; font-weight: normal;&quot;&gt;&lt;font style=&quot;font-size: 7px;&quot;&gt;Lorem ipsum dolor sit amet, consectetur adipisicing elit, sed do eiusmod tempor incididunt ut labore et dolore magna aliqua.&lt;/font&gt;&lt;/span&gt;&lt;br&gt;&lt;/h1&gt;" style="text;html=1;spacing=5;spacingTop=-20;whiteSpace=wrap;overflow=hidden;rounded=0;" vertex="1" parent="1">
          <mxGeometry x="201" y="258.4" width="160" height="38.6" as="geometry" />
        </mxCell>
        <mxCell id="d6iQdWB7Fnf-9KSlPEoD-27" value="&lt;font style=&quot;font-size: 7px;&quot;&gt;99/99/9999&lt;/font&gt;" style="text;html=1;align=center;verticalAlign=middle;whiteSpace=wrap;rounded=0;" vertex="1" parent="1">
          <mxGeometry x="210" y="311" width="35" height="10" as="geometry" />
        </mxCell>
        <mxCell id="d6iQdWB7Fnf-9KSlPEoD-28" value="" style="ellipse;whiteSpace=wrap;html=1;aspect=fixed;fillColor=#b0e3e6;strokeColor=#0e8088;" vertex="1" parent="1">
          <mxGeometry x="345" y="311" width="10" height="10" as="geometry" />
        </mxCell>
        <mxCell id="d6iQdWB7Fnf-9KSlPEoD-29" value="" style="ellipse;whiteSpace=wrap;html=1;aspect=fixed;fillColor=#ffff88;strokeColor=#36393d;" vertex="1" parent="1">
          <mxGeometry x="330" y="311" width="10" height="10" as="geometry" />
        </mxCell>
        <mxCell id="d6iQdWB7Fnf-9KSlPEoD-32" value="" style="rounded=1;whiteSpace=wrap;html=1;fillColor=#fff2cc;strokeColor=#d6b656;gradientColor=#ffd966;" vertex="1" parent="1">
          <mxGeometry x="200" y="332" width="160" height="60" as="geometry" />
        </mxCell>
        <mxCell id="d6iQdWB7Fnf-9KSlPEoD-33" value="&lt;h1 style=&quot;line-height: 20%;&quot;&gt;&lt;span style=&quot;background-color: initial; font-weight: normal;&quot;&gt;&lt;font style=&quot;font-size: 7px;&quot;&gt;Lorem ipsum dolor sit amet, consectetur adipisicing elit, sed do eiusmod tempor incididunt ut labore et dolore magna aliqua.&lt;/font&gt;&lt;/span&gt;&lt;br&gt;&lt;/h1&gt;" style="text;html=1;spacing=5;spacingTop=-20;whiteSpace=wrap;overflow=hidden;rounded=0;" vertex="1" parent="1">
          <mxGeometry x="201" y="325.4" width="160" height="38.6" as="geometry" />
        </mxCell>
        <mxCell id="d6iQdWB7Fnf-9KSlPEoD-34" value="&lt;font style=&quot;font-size: 7px;&quot;&gt;99/99/9999&lt;/font&gt;" style="text;html=1;align=center;verticalAlign=middle;whiteSpace=wrap;rounded=0;" vertex="1" parent="1">
          <mxGeometry x="210" y="378" width="35" height="10" as="geometry" />
        </mxCell>
        <mxCell id="d6iQdWB7Fnf-9KSlPEoD-35" value="" style="ellipse;whiteSpace=wrap;html=1;aspect=fixed;fillColor=#f8cecc;strokeColor=#b85450;gradientColor=#ea6b66;" vertex="1" parent="1">
          <mxGeometry x="345" y="378" width="10" height="10" as="geometry" />
        </mxCell>
        <mxCell id="d6iQdWB7Fnf-9KSlPEoD-36" value="" style="ellipse;whiteSpace=wrap;html=1;aspect=fixed;fillColor=#d0cee2;strokeColor=#56517e;" vertex="1" parent="1">
          <mxGeometry x="330" y="378" width="10" height="10" as="geometry" />
        </mxCell>
        <mxCell id="d6iQdWB7Fnf-9KSlPEoD-37" value="" style="ellipse;whiteSpace=wrap;html=1;aspect=fixed;fillColor=#dae8fc;gradientColor=#7ea6e0;strokeColor=#6c8ebf;" vertex="1" parent="1">
          <mxGeometry x="315" y="378" width="10" height="10" as="geometry" />
        </mxCell>
        <mxCell id="d6iQdWB7Fnf-9KSlPEoD-38" value="" style="ellipse;whiteSpace=wrap;html=1;aspect=fixed;fillColor=#ffcd28;gradientColor=#ffa500;strokeColor=#d79b00;" vertex="1" parent="1">
          <mxGeometry x="300" y="378" width="10" height="10" as="geometry" />
        </mxCell>
        <mxCell id="d6iQdWB7Fnf-9KSlPEoD-39" value="" style="rounded=1;whiteSpace=wrap;html=1;fillColor=#f8cecc;strokeColor=#b85450;gradientColor=#ea6b66;" vertex="1" parent="1">
          <mxGeometry x="200" y="399" width="160" height="60" as="geometry" />
        </mxCell>
        <mxCell id="d6iQdWB7Fnf-9KSlPEoD-40" value="&lt;h1 style=&quot;line-height: 20%;&quot;&gt;&lt;span style=&quot;background-color: initial; font-weight: normal;&quot;&gt;&lt;font style=&quot;font-size: 7px;&quot;&gt;Lorem ipsum dolor sit amet, consectetur adipisicing elit, sed do eiusmod tempor incididunt ut labore et dolore magna aliqua.&lt;/font&gt;&lt;/span&gt;&lt;br&gt;&lt;/h1&gt;" style="text;html=1;spacing=5;spacingTop=-20;whiteSpace=wrap;overflow=hidden;rounded=0;" vertex="1" parent="1">
          <mxGeometry x="201" y="392.4" width="160" height="38.6" as="geometry" />
        </mxCell>
        <mxCell id="d6iQdWB7Fnf-9KSlPEoD-41" value="&lt;font style=&quot;font-size: 7px;&quot;&gt;99/99/9999&lt;/font&gt;" style="text;html=1;align=center;verticalAlign=middle;whiteSpace=wrap;rounded=0;" vertex="1" parent="1">
          <mxGeometry x="210" y="445" width="35" height="10" as="geometry" />
        </mxCell>
        <mxCell id="d6iQdWB7Fnf-9KSlPEoD-42" value="" style="ellipse;whiteSpace=wrap;html=1;aspect=fixed;fillColor=#f0a30a;fontColor=#000000;strokeColor=#BD7000;" vertex="1" parent="1">
          <mxGeometry x="345" y="445" width="10" height="10" as="geometry" />
        </mxCell>
        <mxCell id="d6iQdWB7Fnf-9KSlPEoD-43" value="" style="ellipse;whiteSpace=wrap;html=1;aspect=fixed;fillColor=#d0cee2;strokeColor=#56517e;" vertex="1" parent="1">
          <mxGeometry x="330" y="445" width="10" height="10" as="geometry" />
        </mxCell>
        <mxCell id="d6iQdWB7Fnf-9KSlPEoD-44" value="" style="ellipse;whiteSpace=wrap;html=1;aspect=fixed;fillColor=#dae8fc;gradientColor=#7ea6e0;strokeColor=#6c8ebf;" vertex="1" parent="1">
          <mxGeometry x="315" y="445" width="10" height="10" as="geometry" />
        </mxCell>
        <mxCell id="d6iQdWB7Fnf-9KSlPEoD-45" value="" style="ellipse;whiteSpace=wrap;html=1;aspect=fixed;fillColor=#ffcd28;gradientColor=#ffa500;strokeColor=#d79b00;" vertex="1" parent="1">
          <mxGeometry x="300" y="445" width="10" height="10" as="geometry" />
        </mxCell>
        <mxCell id="d6iQdWB7Fnf-9KSlPEoD-54" value="" style="html=1;verticalLabelPosition=bottom;align=center;labelBackgroundColor=#ffffff;verticalAlign=top;strokeWidth=2;strokeColor=#000000;shadow=0;dashed=0;shape=mxgraph.ios7.icons.page_navigation;pointerEvents=1;rotation=0;" vertex="1" parent="1">
          <mxGeometry x="340" y="202.6" width="15" height="2.4" as="geometry" />
        </mxCell>
        <mxCell id="d6iQdWB7Fnf-9KSlPEoD-55" value="" style="html=1;verticalLabelPosition=bottom;align=center;labelBackgroundColor=#ffffff;verticalAlign=top;strokeWidth=2;strokeColor=#000000;shadow=0;dashed=0;shape=mxgraph.ios7.icons.page_navigation;pointerEvents=1;rotation=0;" vertex="1" parent="1">
          <mxGeometry x="340" y="269.6" width="15" height="2.4" as="geometry" />
        </mxCell>
        <mxCell id="d6iQdWB7Fnf-9KSlPEoD-56" value="" style="html=1;verticalLabelPosition=bottom;align=center;labelBackgroundColor=#ffffff;verticalAlign=top;strokeWidth=2;strokeColor=#000000;shadow=0;dashed=0;shape=mxgraph.ios7.icons.page_navigation;pointerEvents=1;rotation=0;" vertex="1" parent="1">
          <mxGeometry x="340" y="335.6" width="15" height="2.4" as="geometry" />
        </mxCell>
        <mxCell id="d6iQdWB7Fnf-9KSlPEoD-57" value="" style="html=1;verticalLabelPosition=bottom;align=center;labelBackgroundColor=#ffffff;verticalAlign=top;strokeWidth=2;strokeColor=#000000;shadow=0;dashed=0;shape=mxgraph.ios7.icons.page_navigation;pointerEvents=1;rotation=0;" vertex="1" parent="1">
          <mxGeometry x="340" y="402.5" width="15" height="2.4" as="geometry" />
        </mxCell>
        <mxCell id="d6iQdWB7Fnf-9KSlPEoD-60" value="" style="rounded=0;whiteSpace=wrap;html=1;shadow=0;dashed=0;pointerEvents=1;strokeColor=#878787;strokeWidth=2;align=center;verticalAlign=top;fontFamily=Helvetica;fontSize=12;fontColor=default;labelBackgroundColor=#ffffff;fillColor=default;" vertex="1" parent="1">
          <mxGeometry x="186" y="95" width="190" height="138.75" as="geometry" />
        </mxCell>
        <mxCell id="3ZL1Tjc2D25S1oqH2oYp-4" value="" style="verticalLabelPosition=bottom;verticalAlign=top;html=1;shadow=0;dashed=0;strokeWidth=1;shape=mxgraph.android.phone2;strokeColor=#c0c0c0;" parent="1" vertex="1">
          <mxGeometry x="180" y="75" width="200" height="390" as="geometry" />
        </mxCell>
        <mxCell id="d6iQdWB7Fnf-9KSlPEoD-61" value="&lt;h1 style=&quot;font-size: 16px;&quot;&gt;&lt;span style=&quot;font-size: 12px; font-weight: normal;&quot;&gt;A tarefa de nome XXXXXX passou da data de validade.&lt;/span&gt;&lt;br&gt;&lt;/h1&gt;" style="text;html=1;spacing=5;spacingTop=-20;whiteSpace=wrap;overflow=hidden;rounded=0;fontFamily=Helvetica;fontSize=12;fontColor=default;labelBackgroundColor=#ffffff;" vertex="1" parent="1">
          <mxGeometry x="197" y="121.4" width="173" height="48.6" as="geometry" />
        </mxCell>
        <mxCell id="d6iQdWB7Fnf-9KSlPEoD-64" value="" style="line;strokeWidth=2;html=1;shadow=0;dashed=0;pointerEvents=1;strokeColor=#C2C2C2;align=center;verticalAlign=top;fontFamily=Helvetica;fontSize=12;fontColor=default;labelBackgroundColor=#ffffff;fillColor=default;" vertex="1" parent="1">
          <mxGeometry x="200" y="161.25" width="160" height="10" as="geometry" />
        </mxCell>
        <mxCell id="d6iQdWB7Fnf-9KSlPEoD-65" value="&lt;h1 style=&quot;font-size: 16px;&quot;&gt;&lt;span style=&quot;font-size: 12px; font-weight: normal;&quot;&gt;Hoje e o dia final para realizar a tarefa XXXXXXX.&lt;/span&gt;&lt;br&gt;&lt;/h1&gt;" style="text;html=1;spacing=5;spacingTop=-20;whiteSpace=wrap;overflow=hidden;rounded=0;fontFamily=Helvetica;fontSize=12;fontColor=default;labelBackgroundColor=#ffffff;" vertex="1" parent="1">
          <mxGeometry x="198.5" y="178.1" width="173" height="48.6" as="geometry" />
        </mxCell>
        <mxCell id="d6iQdWB7Fnf-9KSlPEoD-67" value="&lt;b&gt;&lt;font style=&quot;font-size: 15px;&quot;&gt;X&lt;/font&gt;&lt;/b&gt;" style="ellipse;whiteSpace=wrap;html=1;aspect=fixed;" vertex="1" parent="1">
          <mxGeometry x="350" y="114.1" width="20" height="20" as="geometry" />
        </mxCell>
        <mxCell id="3ZL1Tjc2D25S1oqH2oYp-111" value="&lt;b&gt;&lt;font color=&quot;#ffffff&quot; style=&quot;font-size: 15px;&quot;&gt;1&lt;/font&gt;&lt;/b&gt;" style="ellipse;whiteSpace=wrap;html=1;aspect=fixed;fillColor=#000000;" parent="1" vertex="1">
          <mxGeometry x="335" y="158.1" width="20" height="20" as="geometry" />
        </mxCell>
        <mxCell id="d6iQdWB7Fnf-9KSlPEoD-68" value="&lt;b&gt;&lt;font color=&quot;#ffffff&quot; style=&quot;font-size: 15px;&quot;&gt;2&lt;/font&gt;&lt;/b&gt;" style="ellipse;whiteSpace=wrap;html=1;aspect=fixed;fillColor=#000000;" vertex="1" parent="1">
          <mxGeometry x="330" y="105" width="20" height="20" as="geometry" />
        </mxCell>
      </root>
    </mxGraphModel>
  </diagram>
</mxfile>
